<svg xmlns="http://www.w3.org/2000/svg" class="" viewBox="0 -960 960 960" fill="currentColor"><path d="M202.57-100q-25.79 0-44.18-18.39T140-162.57v-564.61q0-25.79 18.39-44.17 18.39-18.39 44.18-18.39h67.69v-74.87h54.1v74.87h312.82v-74.87H690v74.87h67.43q25.79 0 44.18 18.39Q820-752.97 820-727.18v564.61q0 25.79-18.39 44.18T757.43-100H202.57Zm0-50.26h554.86q4.62 0 8.47-3.84 3.84-3.85 3.84-8.47v-389.99H190.26v389.99q0 4.62 3.84 8.47 3.85 3.84 8.47 3.84Zm-12.31-452.56h579.48v-124.36q0-4.61-3.84-8.46-3.85-3.85-8.47-3.85H202.57q-4.62 0-8.47 3.85-3.84 3.85-3.84 8.46v124.36Zm0 0v-136.67 136.67ZM480-396.92q-14.69 0-25.04-10.35-10.34-10.34-10.34-25.04 0-14.69 10.34-25.04 10.35-10.34 25.04-10.34t25.04 10.34q10.34 10.35 10.34 25.04 0 14.7-10.34 25.04-10.35 10.35-25.04 10.35Zm-160 0q-14.69 0-25.04-10.35-10.34-10.34-10.34-25.04 0-14.69 10.34-25.04 10.35-10.34 25.04-10.34t25.04 10.34q10.34 10.35 10.34 25.04 0 14.7-10.34 25.04-10.35 10.35-25.04 10.35Zm320 0q-14.69 0-25.04-10.35-10.34-10.34-10.34-25.04 0-14.69 10.34-25.04 10.35-10.34 25.04-10.34t25.04 10.34q10.34 10.35 10.34 25.04 0 14.7-10.34 25.04-10.35 10.35-25.04 10.35ZM480-240q-14.69 0-25.04-10.35-10.34-10.34-10.34-25.03 0-14.7 10.34-25.04 10.35-10.35 25.04-10.35t25.04 10.35q10.34 10.34 10.34 25.04 0 14.69-10.34 25.03Q494.69-240 480-240Zm-160 0q-14.69 0-25.04-10.35-10.34-10.34-10.34-25.03 0-14.7 10.34-25.04 10.35-10.35 25.04-10.35t25.04 10.35q10.34 10.34 10.34 25.04 0 14.69-10.34 25.03Q334.69-240 320-240Zm320 0q-14.69 0-25.04-10.35-10.34-10.34-10.34-25.03 0-14.7 10.34-25.04 10.35-10.35 25.04-10.35t25.04 10.35q10.34 10.34 10.34 25.04 0 14.69-10.34 25.03Q654.69-240 640-240Z"/></svg>