<svg xmlns="http://www.w3.org/2000/svg" class="" viewBox="0 -960 960 960" fill="currentColor"><path d="M572.82-455.64h171.79v-50.26H572.82v50.26Zm0-115.39h171.79v-50.25H572.82v50.25ZM215.39-333.85h292.3v-12.82q0-38.51-38.83-61.36-38.83-22.84-107.32-22.84t-107.32 22.84q-38.83 22.85-38.83 61.36v12.82Zm146.14-159.07q27.67 0 47.15-19.47 19.47-19.46 19.47-47.14 0-27.67-19.46-47.15-19.46-19.47-47.14-19.47t-47.15 19.46q-19.48 19.46-19.48 47.14t19.47 47.15q19.46 19.48 47.14 19.48ZM162.57-180q-25.79 0-44.18-18.39T100-242.57v-474.86q0-25.79 18.39-44.18T162.57-780h634.86q25.79 0 44.18 18.39T860-717.43v474.86q0 25.79-18.39 44.18T797.43-180H162.57Z"/></svg>